<mxfile host="app.diagrams.net" modified="2024-02-05T17:53:21.801Z" agent="Mozilla/5.0 (Windows NT 10.0; Win64; x64) AppleWebKit/537.36 (KHTML, like Gecko) Chrome/121.0.0.0 Safari/537.36" etag="WSZ6zCvS4iAR1WqWBcJj" version="23.1.1" type="google">
  <diagram name="Page-1" id="wphY0NFWG7sjxaA7oNJx">
    <mxGraphModel grid="1" page="1" gridSize="10" guides="1" tooltips="1" connect="1" arrows="1" fold="1" pageScale="1" pageWidth="827" pageHeight="1169" math="0" shadow="0">
      <root>
        <mxCell id="0" />
        <mxCell id="1" parent="0" />
        <mxCell id="E2Uug-h7ZklEiEAjUpQ4-19" value="" style="ellipse;whiteSpace=wrap;html=1;aspect=fixed;sketch=1;hachureGap=4;jiggle=2;curveFitting=1;fontFamily=Architects Daughter;fontSource=https%3A%2F%2Ffonts.googleapis.com%2Fcss%3Ffamily%3DArchitects%2BDaughter;fontSize=20;" vertex="1" parent="1">
          <mxGeometry x="47.25999999999999" y="120" width="395.48" height="395.48" as="geometry" />
        </mxCell>
        <mxCell id="E2Uug-h7ZklEiEAjUpQ4-18" value="" style="ellipse;whiteSpace=wrap;html=1;aspect=fixed;sketch=1;hachureGap=4;jiggle=2;curveFitting=1;fontFamily=Architects Daughter;fontSource=https%3A%2F%2Ffonts.googleapis.com%2Fcss%3Ffamily%3DArchitects%2BDaughter;fontSize=20;" vertex="1" parent="1">
          <mxGeometry x="71.58" y="173.35999999999999" width="346.87" height="346.87" as="geometry" />
        </mxCell>
        <mxCell id="E2Uug-h7ZklEiEAjUpQ4-5" value="" style="ellipse;whiteSpace=wrap;html=1;aspect=fixed;sketch=1;hachureGap=4;jiggle=2;curveFitting=1;fontFamily=Architects Daughter;fontSource=https%3A%2F%2Ffonts.googleapis.com%2Fcss%3Ffamily%3DArchitects%2BDaughter;fontSize=20;" vertex="1" parent="1">
          <mxGeometry x="95.61999999999999" y="221.48" width="298.75" height="298.75" as="geometry" />
        </mxCell>
        <mxCell id="E2Uug-h7ZklEiEAjUpQ4-4" value="" style="ellipse;whiteSpace=wrap;html=1;aspect=fixed;sketch=1;hachureGap=4;jiggle=2;curveFitting=1;fontFamily=Architects Daughter;fontSource=https%3A%2F%2Ffonts.googleapis.com%2Fcss%3Ffamily%3DArchitects%2BDaughter;fontSize=20;" vertex="1" parent="1">
          <mxGeometry x="120" y="270.23" width="250" height="250" as="geometry" />
        </mxCell>
        <mxCell id="E2Uug-h7ZklEiEAjUpQ4-3" value="" style="ellipse;whiteSpace=wrap;html=1;aspect=fixed;sketch=1;hachureGap=4;jiggle=2;curveFitting=1;fontFamily=Architects Daughter;fontSource=https%3A%2F%2Ffonts.googleapis.com%2Fcss%3Ffamily%3DArchitects%2BDaughter;fontSize=20;" vertex="1" parent="1">
          <mxGeometry x="142.49" y="315.23" width="205" height="205" as="geometry" />
        </mxCell>
        <mxCell id="E2Uug-h7ZklEiEAjUpQ4-8" value="" style="endArrow=none;html=1;rounded=0;sketch=1;hachureGap=4;jiggle=2;curveFitting=1;fontFamily=Architects Daughter;fontSource=https%3A%2F%2Ffonts.googleapis.com%2Fcss%3Ffamily%3DArchitects%2BDaughter;fontSize=16;" edge="1" parent="1" source="E2Uug-h7ZklEiEAjUpQ4-2">
          <mxGeometry width="50" height="50" relative="1" as="geometry">
            <mxPoint x="300" y="540" as="sourcePoint" />
            <mxPoint x="260.0007028843281" y="430.00398218969815" as="targetPoint" />
          </mxGeometry>
        </mxCell>
        <mxCell id="E2Uug-h7ZklEiEAjUpQ4-10" value="your Team" style="text;html=1;strokeColor=none;fillColor=none;align=center;verticalAlign=middle;whiteSpace=wrap;rounded=0;fontSize=20;fontFamily=Architects Daughter;" vertex="1" parent="1">
          <mxGeometry x="190.01" y="330" width="110" height="30" as="geometry" />
        </mxCell>
        <mxCell id="E2Uug-h7ZklEiEAjUpQ4-11" value="your Department" style="text;html=1;strokeColor=none;fillColor=none;align=center;verticalAlign=middle;whiteSpace=wrap;rounded=0;fontSize=20;fontFamily=Architects Daughter;" vertex="1" parent="1">
          <mxGeometry x="159.99" y="240.23000000000002" width="170" height="30" as="geometry" />
        </mxCell>
        <mxCell id="E2Uug-h7ZklEiEAjUpQ4-13" value="senior leadership" style="text;html=1;strokeColor=none;fillColor=none;align=center;verticalAlign=middle;whiteSpace=wrap;rounded=0;fontSize=20;fontFamily=Architects Daughter;" vertex="1" parent="1">
          <mxGeometry x="210" y="130" width="60" height="30" as="geometry" />
        </mxCell>
        <mxCell id="E2Uug-h7ZklEiEAjUpQ4-15" value="inter Team" style="text;html=1;strokeColor=none;fillColor=none;align=center;verticalAlign=middle;whiteSpace=wrap;rounded=0;fontSize=20;fontFamily=Architects Daughter;" vertex="1" parent="1">
          <mxGeometry x="180.01" y="285.23" width="130" height="30" as="geometry" />
        </mxCell>
        <mxCell id="E2Uug-h7ZklEiEAjUpQ4-16" value="" style="endArrow=none;html=1;rounded=0;sketch=1;hachureGap=4;jiggle=2;curveFitting=1;fontFamily=Architects Daughter;fontSource=https%3A%2F%2Ffonts.googleapis.com%2Fcss%3Ffamily%3DArchitects%2BDaughter;fontSize=16;" edge="1" parent="1" source="E2Uug-h7ZklEiEAjUpQ4-18">
          <mxGeometry width="50" height="50" relative="1" as="geometry">
            <mxPoint x="270" y="620" as="sourcePoint" />
            <mxPoint x="220.00070288432812" y="490.00398218969815" as="targetPoint" />
          </mxGeometry>
        </mxCell>
        <mxCell id="E2Uug-h7ZklEiEAjUpQ4-17" value="inter Departmental" style="text;html=1;strokeColor=none;fillColor=none;align=center;verticalAlign=middle;whiteSpace=wrap;rounded=0;fontSize=20;fontFamily=Architects Daughter;" vertex="1" parent="1">
          <mxGeometry x="150.01" y="191.48000000000002" width="190" height="30" as="geometry" />
        </mxCell>
        <mxCell id="E2Uug-h7ZklEiEAjUpQ4-21" value="" style="endArrow=none;html=1;rounded=0;sketch=1;hachureGap=4;jiggle=2;curveFitting=1;fontFamily=Architects Daughter;fontSource=https%3A%2F%2Ffonts.googleapis.com%2Fcss%3Ffamily%3DArchitects%2BDaughter;fontSize=16;" edge="1" parent="1" target="E2Uug-h7ZklEiEAjUpQ4-18">
          <mxGeometry width="50" height="50" relative="1" as="geometry">
            <mxPoint x="320" y="510" as="sourcePoint" />
            <mxPoint x="280.0007028843281" y="400.00398218969815" as="targetPoint" />
          </mxGeometry>
        </mxCell>
        <mxCell id="E2Uug-h7ZklEiEAjUpQ4-2" value="" style="ellipse;whiteSpace=wrap;html=1;aspect=fixed;sketch=1;hachureGap=4;jiggle=2;curveFitting=1;fontFamily=Architects Daughter;fontSource=https%3A%2F%2Ffonts.googleapis.com%2Fcss%3Ffamily%3DArchitects%2BDaughter;fontSize=20;" vertex="1" parent="1">
          <mxGeometry x="170" y="365.48" width="150" height="150" as="geometry" />
        </mxCell>
        <mxCell id="E2Uug-h7ZklEiEAjUpQ4-1" value="You" style="shape=umlActor;verticalLabelPosition=bottom;verticalAlign=top;html=1;outlineConnect=0;sketch=1;hachureGap=4;jiggle=2;curveFitting=1;fontFamily=Architects Daughter;fontSource=https%3A%2F%2Ffonts.googleapis.com%2Fcss%3Ffamily%3DArchitects%2BDaughter;fontSize=20;" vertex="1" parent="1">
          <mxGeometry x="230" y="410.48" width="30" height="60" as="geometry" />
        </mxCell>
      </root>
    </mxGraphModel>
  </diagram>
</mxfile>
